<?xml version="1.0" encoding="UTF-8"?>
<svg id="Layer_1" xmlns="http://www.w3.org/2000/svg" version="1.1" xmlns:xlink="http://www.w3.org/1999/xlink" viewBox="0 0 426.67 426.67">
  <!-- Generator: Adobe Illustrator 30.4.0, SVG Export Plug-In . SVG Version: 2.1.4 Build 226)  -->
  <defs>
    <style>
      .st0 {
        fill: url(#linear-gradient2);
      }

      .st1 {
        fill: url(#linear-gradient10);
      }

      .st2 {
        opacity: .61;
      }

      .st3 {
        fill: #fff;
      }

      .st4 {
        fill: url(#linear-gradient1);
      }

      .st5 {
        fill: url(#linear-gradient9);
      }

      .st6 {
        fill: url(#linear-gradient8);
      }

      .st7 {
        fill: url(#linear-gradient11);
      }

      .st8 {
        fill: url(#linear-gradient16);
      }

      .st9 {
        fill: url(#linear-gradient12);
      }

      .st10 {
        fill: url(#linear-gradient7);
      }

      .st11 {
        fill: url(#linear-gradient4);
      }

      .st12 {
        fill: url(#linear-gradient14);
      }

      .st13 {
        fill: url(#linear-gradient5);
      }

      .st14 {
        fill: url(#linear-gradient3);
      }

      .st15 {
        display: none;
      }

      .st16 {
        fill: url(#linear-gradient15);
      }

      .st17 {
        fill: url(#linear-gradient17);
      }

      .st18 {
        fill: #007fff;
      }

      .st19 {
        fill: url(#linear-gradient6);
      }

      .st20 {
        fill: url(#linear-gradient13);
      }

      .st21 {
        fill: url(#linear-gradient);
      }
    </style>
    <linearGradient id="linear-gradient" x1="229.17" y1="203.86" x2="381.89" y2="203.86" gradientUnits="userSpaceOnUse">
      <stop offset="0" stop-color="#fff"/>
      <stop offset="1" stop-color="#c1c1c1"/>
    </linearGradient>
    <linearGradient id="linear-gradient1" x1="334.5" y1="187.94" x2="357.41" y2="187.94" xlink:href="#linear-gradient"/>
    <linearGradient id="linear-gradient2" x1="221.36" y1="248.9" x2="389.33" y2="248.9" xlink:href="#linear-gradient"/>
    <linearGradient id="linear-gradient3" x1="221.36" y1="260.22" x2="345.05" y2="260.22" xlink:href="#linear-gradient"/>
    <linearGradient id="linear-gradient4" x1="221.36" y1="252.91" x2="297.69" y2="252.91" xlink:href="#linear-gradient"/>
    <linearGradient id="linear-gradient5" x1="331.66" y1="152.59" x2="279.03" y2="205.22" xlink:href="#linear-gradient"/>
    <linearGradient id="linear-gradient6" x1="292.8" y1="218.25" x2="286.86" y2="224.19" gradientUnits="userSpaceOnUse">
      <stop offset="0" stop-color="#000" stop-opacity=".4"/>
      <stop offset=".99" stop-color="#fff" stop-opacity="0"/>
    </linearGradient>
    <linearGradient id="linear-gradient7" x1="334.9" y1="260.35" x2="328.95" y2="266.29" xlink:href="#linear-gradient6"/>
    <linearGradient id="linear-gradient8" x1="234.37" y1="286.38" x2="239.21" y2="291.22" xlink:href="#linear-gradient6"/>
    <linearGradient id="linear-gradient9" x1="-1124.16" x2="-971.44" gradientTransform="translate(-926.67) scale(-1 1)" xlink:href="#linear-gradient"/>
    <linearGradient id="linear-gradient10" x1="-1018.84" y1="187.94" x2="-995.92" y2="187.94" gradientTransform="translate(-926.67) scale(-1 1)" xlink:href="#linear-gradient"/>
    <linearGradient id="linear-gradient11" x1="-1131.98" y1="248.9" x2="-964" y2="248.9" gradientTransform="translate(-926.67) scale(-1 1)" xlink:href="#linear-gradient"/>
    <linearGradient id="linear-gradient12" x1="-1131.98" y1="260.22" x2="-1008.28" y2="260.22" gradientTransform="translate(-926.67) scale(-1 1)" xlink:href="#linear-gradient"/>
    <linearGradient id="linear-gradient13" x1="-1131.98" y1="252.91" x2="-1055.64" y2="252.91" gradientTransform="translate(-926.67) scale(-1 1)" xlink:href="#linear-gradient"/>
    <linearGradient id="linear-gradient14" x1="-1021.67" y1="152.59" x2="-1074.3" y2="205.22" gradientTransform="translate(-926.67) scale(-1 1)" xlink:href="#linear-gradient"/>
    <linearGradient id="linear-gradient15" x1="-1060.53" y1="218.25" x2="-1066.48" y2="224.19" gradientTransform="translate(-926.67) scale(-1 1)" xlink:href="#linear-gradient6"/>
    <linearGradient id="linear-gradient16" x1="-1018.43" y1="260.35" x2="-1024.38" y2="266.29" gradientTransform="translate(-926.67) scale(-1 1)" xlink:href="#linear-gradient6"/>
    <linearGradient id="linear-gradient17" x1="-1118.97" y1="286.38" x2="-1114.13" y2="291.22" gradientTransform="translate(-926.67) scale(-1 1)" xlink:href="#linear-gradient6"/>
  </defs>
  <g class="st15">
    <g>
      <g>
        <path class="st21" d="M371.36,213.35l-31.57,31.57-100.09-100.09-10.53,10.53,105.35,105.35c1.45,1.45,3.36,2.18,5.26,2.18s3.81-.73,5.26-2.18l36.84-36.84-10.53-10.53Z"/>
        <g>
          <path class="st4" d="M334.53,176.52l22.89,22.88-22.92-22.92s.02.02.03.03Z"/>
          <path class="st0" d="M387.15,208.09l-17.37-17.37,17.37,17.37c1.4,1.4,2.18,3.29,2.18,5.26s-.78,3.87-2.18,5.26l-42.1,42.1c-1.45,1.45-3.36,2.18-5.26,2.18s-3.81-.73-5.26-2.18l-5.26-5.26-21.53,21.53c-18.52,18.52-47.64,20.15-68.03,4.89l57.99-57.99-10.52-10.52-63.63,63.63c-1.4,1.4-2.18,3.29-2.18,5.26s.78,3.87,2.18,5.26c13.06,13.06,30.21,19.58,47.36,19.58s34.3-6.53,47.36-19.58l68.89-68.89c1.4-1.4,2.18-3.29,2.18-5.26s-.78-3.87-2.18-5.26Z"/>
          <path class="st14" d="M345.05,260.71l-12.07,12.08-14.72,14.72c-13.06,13.06-30.21,19.58-47.36,19.58-13.06,0-26.13-3.78-37.38-11.37-1.51-1.02-2.98-2.1-4.42-3.25-1.92-1.53-3.78-3.19-5.56-4.97-1.39-1.39-2.18-3.29-2.18-5.26s.78-3.87,2.18-5.26l56.82-56.81,6.81-6.81,4.97,4.97,5.55,5.55-6.81,6.81-51.18,51.18c1.49,1.12,3.02,2.14,4.6,3.07,19.99,11.87,46.26,9.21,63.43-7.96l14.72-14.72,6.81-6.81,5.26,5.26c1.45,1.45,3.36,2.18,5.26,2.18s3.81-.73,5.26-2.18Z"/>
          <path class="st11" d="M297.69,223.88l-6.81,6.81-51.18,51.18-10.6,10.6c-1.92-1.53-3.78-3.19-5.56-4.97-1.39-1.39-2.18-3.29-2.18-5.26s.78-3.87,2.18-5.26l56.82-56.81,6.81-6.81,4.97,4.97,5.55,5.55Z"/>
        </g>
        <path class="st13" d="M389.33,213.35c0,1.98-.78,3.87-2.18,5.26l-5.26,5.26-74.15-74.15c-9.84-9.84-22.92-15.26-36.84-15.26-11.41,0-22.25,3.64-31.2,10.37l-10.53,10.53-5.64-5.64c-1.39-1.4-2.18-3.29-2.18-5.26s.78-3.87,2.18-5.26c12.65-12.65,29.47-19.62,47.37-19.62s34.71,6.97,47.36,19.62l68.89,68.89c1.39,1.4,2.18,3.29,2.18,5.26Z"/>
        <g class="st2">
          <g>
            <polygon class="st19" points="292.14 218.33 297.69 223.88 290.88 230.69 280.36 220.17 287.17 213.36 292.14 218.33"/>
            <path class="st10" d="M345.05,260.71l-12.07,12.08-10.53-10.53,6.81-6.81,5.26,5.26c1.45,1.45,3.36,2.18,5.26,2.18s3.81-.73,5.26-2.18Z"/>
          </g>
          <path class="st6" d="M244.3,284.94l-10.78,10.78c-1.51-1.02-2.98-2.1-4.42-3.25l10.6-10.6c1.49,1.12,3.02,2.14,4.6,3.07Z"/>
        </g>
      </g>
      <g>
        <path class="st5" d="M44.78,223.88l36.84,36.84c1.45,1.45,3.36,2.18,5.26,2.18s3.81-.73,5.26-2.18l105.35-105.35-10.53-10.53-100.09,100.09-31.57-31.57-10.53,10.53Z"/>
        <g>
          <path class="st1" d="M92.14,176.52l-22.89,22.88,22.92-22.92s-.02.02-.03.03Z"/>
          <path class="st7" d="M39.51,208.09l17.37-17.37-17.37,17.37c-1.4,1.4-2.18,3.29-2.18,5.26s.78,3.87,2.18,5.26l42.1,42.1c1.45,1.45,3.36,2.18,5.26,2.18s3.81-.73,5.26-2.18l5.26-5.26,21.53,21.53c18.52,18.52,47.64,20.15,68.03,4.89l-57.99-57.99,10.52-10.52,63.63,63.63c1.4,1.4,2.18,3.29,2.18,5.26s-.78,3.87-2.18,5.26c-13.06,13.06-30.21,19.58-47.36,19.58s-34.3-6.53-47.36-19.58l-68.89-68.89c-1.4-1.4-2.18-3.29-2.18-5.26s.78-3.87,2.18-5.26Z"/>
          <path class="st9" d="M81.61,260.71l12.07,12.08,14.72,14.72c13.06,13.06,30.21,19.58,47.36,19.58,13.06,0,26.13-3.78,37.38-11.37,1.51-1.02,2.98-2.1,4.42-3.25,1.92-1.53,3.78-3.19,5.56-4.97,1.39-1.39,2.18-3.29,2.18-5.26s-.78-3.87-2.18-5.26l-56.82-56.81-6.81-6.81-4.97,4.97-5.55,5.55,6.81,6.81,51.18,51.18c-1.49,1.12-3.02,2.14-4.6,3.07-19.99,11.87-46.26,9.21-63.43-7.96l-14.72-14.72-6.81-6.81-5.26,5.26c-1.45,1.45-3.36,2.18-5.26,2.18s-3.81-.73-5.26-2.18Z"/>
          <path class="st20" d="M128.97,223.88l6.81,6.81,51.18,51.18,10.6,10.6c1.92-1.53,3.78-3.19,5.56-4.97,1.39-1.39,2.18-3.29,2.18-5.26s-.78-3.87-2.18-5.26l-56.82-56.81-6.81-6.81-4.97,4.97-5.55,5.55Z"/>
        </g>
        <path class="st12" d="M37.33,213.35c0,1.98.78,3.87,2.18,5.26l5.26,5.26,74.15-74.15c9.84-9.84,22.92-15.26,36.84-15.26,11.41,0,22.25,3.64,31.2,10.37l10.53,10.53,5.64-5.64c1.39-1.4,2.18-3.29,2.18-5.26s-.78-3.87-2.18-5.26c-12.65-12.65-29.47-19.62-47.37-19.62s-34.71,6.97-47.36,19.62l-68.89,68.89c-1.39,1.4-2.18,3.29-2.18,5.26Z"/>
        <g>
          <g>
            <polygon class="st16" points="134.53 218.33 128.97 223.88 135.79 230.69 146.31 220.17 139.49 213.36 134.53 218.33"/>
            <path class="st8" d="M81.61,260.71l12.07,12.08,10.53-10.53-6.81-6.81-5.26,5.26c-1.45,1.45-3.36,2.18-5.26,2.18s-3.81-.73-5.26-2.18Z"/>
          </g>
          <path class="st17" d="M182.37,284.94l10.78,10.78c1.51-1.02,2.98-2.1,4.42-3.25l-10.6-10.6c-1.49,1.12-3.02,2.14-4.6,3.07Z"/>
        </g>
      </g>
    </g>
  </g>
  <g class="st15">
    <path class="st3" d="M334.5,167.01s.02.02.03.03l22.89,22.88-22.92-22.92Z"/>
    <path class="st3" d="M389.33,203.88c0-1.53-.49-3.01-1.35-4.25-.25-.35-.52-.7-.83-1.01l-68.89-68.89c-12.65-12.65-29.47-19.62-47.36-19.62s-34.71,6.97-47.37,19.62c-1.39,1.39-2.18,3.29-2.18,5.26s.79,3.86,2.18,5.26l5.64,5.64,58,58-45.07,45.07-18.56,18.56c-1.39,1.39-2.18,3.29-2.18,5.26h0c0,.33.05.65.1.97.21,1.61.92,3.13,2.08,4.29.07.07.14.12.21.19,1.67,1.65,3.4,3.19,5.19,4.63.06.04.1.1.16.14,1.44,1.15,2.92,2.23,4.42,3.25.07.05.14.08.2.13.49.33,1,.61,1.5.93,1.21.77,2.44,1.5,3.69,2.18.62.34,1.24.66,1.87.97,1.24.62,2.49,1.2,3.76,1.74.56.24,1.11.49,1.67.71,1.8.71,3.61,1.36,5.45,1.9.31.09.62.16.93.24,1.57.44,3.15.83,4.74,1.15.63.13,1.26.24,1.89.35,1.35.24,2.69.43,4.05.58.62.07,1.24.15,1.86.2,1.84.16,3.68.26,5.52.26.08,0,.16.01.23.01,8.91,0,17.8-1.8,26.13-5.32,7.71-3.26,14.95-7.98,21.23-14.26l14.72-14.72,12.07-12.08,36.84-36.84,5.26-5.26c1.05-1.05,1.75-2.37,2.03-3.8.1-.48.14-.97.14-1.46ZM307.73,267.51c-.13.13-.27.24-.41.37-.99.97-2,1.9-3.04,2.77-.45.37-.92.7-1.38,1.06-.76.59-1.51,1.19-2.3,1.73-.53.37-1.08.7-1.62,1.04-.74.47-1.48.95-2.23,1.38-.58.33-1.17.62-1.75.93-.75.39-1.5.78-2.26,1.13-.6.28-1.22.53-1.83.78-.77.32-1.54.63-2.32.91-.62.22-1.25.43-1.88.62-.79.25-1.58.49-2.38.7-.63.17-1.27.32-1.9.46-.81.18-1.62.35-2.44.49-.63.11-1.27.22-1.9.3-.84.12-1.68.2-2.52.28-.62.06-1.24.11-1.87.15-.87.05-1.73.06-2.6.06-.6,0-1.2.01-1.8,0-.9-.03-1.81-.1-2.71-.17-.56-.05-1.13-.08-1.69-.14-.97-.11-1.93-.27-2.89-.44-.49-.08-.98-.15-1.47-.24-1.14-.23-2.26-.52-3.38-.82-.3-.08-.61-.14-.92-.23-1.44-.42-2.86-.9-4.26-1.44-.15-.06-.29-.13-.43-.19-1.23-.49-2.46-1.02-3.66-1.61-.45-.22-.88-.48-1.33-.71-.87-.46-1.73-.92-2.58-1.43-1.36-.82-2.7-1.71-4-2.67-.1-.07-.2-.13-.3-.2l20.17-20.17,37.82-37.82,31.57,31.57-15.75,15.75-5.78,5.78ZM270.9,124.99c13.92,0,26.99,5.42,36.84,15.26l63.62,63.62-31.57,31.57-100.09-100.09c8.96-6.73,19.8-10.37,31.2-10.37Z"/>
    <path class="st3" d="M92.14,167.05s.02-.02.03-.03l-22.92,22.92,22.89-22.88Z"/>
    <path class="st3" d="M205.17,271.31c-.29-1.43-.99-2.76-2.03-3.81l-19.66-19.66-43.97-43.96,58-58,5.64-5.64c1.39-1.4,2.18-3.29,2.18-5.26s-.78-3.87-2.18-5.26c-12.65-12.65-29.47-19.62-47.37-19.62s-34.71,6.97-47.36,19.62l-68.89,68.89c-.29.29-.53.61-.76.93-.91,1.26-1.42,2.76-1.42,4.33h0c0,1.98.79,3.87,2.18,5.26l5.26,5.26,36.84,36.84,12.07,12.08,14.72,14.72c6.28,6.28,13.51,11,21.23,14.26,8.33,3.52,17.23,5.32,26.13,5.32.08,0,.16-.01.23-.01,1.84,0,3.68-.11,5.52-.26.62-.05,1.24-.13,1.85-.2,1.36-.15,2.7-.35,4.05-.58.63-.11,1.26-.22,1.89-.35,1.59-.33,3.17-.71,4.75-1.16.31-.09.62-.15.93-.24,1.84-.55,3.66-1.19,5.45-1.9.56-.22,1.11-.48,1.67-.71,1.27-.54,2.52-1.12,3.76-1.74.63-.32,1.25-.63,1.87-.97,1.25-.68,2.48-1.41,3.69-2.18.5-.31,1.01-.6,1.5-.93.07-.04.14-.08.2-.13,1.51-1.01,2.98-2.1,4.42-3.25.06-.04.11-.1.16-.14,1.78-1.43,3.51-2.97,5.17-4.61.07-.07.16-.13.23-.21.97-.97,1.63-2.2,1.95-3.52.14-.57.23-1.15.23-1.74,0-.49-.05-.98-.14-1.46ZM178.77,277.41c-1.2.59-2.42,1.12-3.66,1.61-.15.06-.29.13-.43.19-1.4.54-2.82,1.02-4.26,1.44-.31.09-.62.15-.93.23-1.12.3-2.24.59-3.38.82-.49.1-.98.16-1.48.24-.96.16-1.92.33-2.89.44-.56.06-1.12.09-1.69.14-.9.07-1.8.14-2.71.17-.6.02-1.2,0-1.8,0-.87,0-1.74-.01-2.6-.06-.62-.03-1.25-.09-1.87-.15-.84-.07-1.68-.16-2.52-.28-.63-.09-1.27-.19-1.9-.3-.82-.14-1.63-.31-2.44-.49-.64-.14-1.27-.3-1.9-.46-.8-.21-1.59-.45-2.38-.7-.63-.2-1.25-.4-1.87-.62-.78-.28-1.55-.59-2.32-.91-.61-.25-1.22-.5-1.83-.78-.76-.35-1.51-.74-2.26-1.13-.59-.31-1.18-.6-1.75-.93-.76-.43-1.49-.91-2.23-1.38-.54-.35-1.09-.67-1.62-1.04-.78-.54-1.54-1.14-2.3-1.73-.46-.36-.93-.69-1.38-1.06-1.04-.87-2.06-1.81-3.04-2.77-.13-.13-.28-.24-.41-.37l-5.78-5.78-15.75-15.75,31.57-31.57,40.34,40.34,17.65,17.65c-.1.08-.21.14-.31.21-1.29.96-2.62,1.84-3.98,2.66-.84.51-1.71.97-2.58,1.43-.44.23-.88.49-1.33.71ZM118.93,140.26c9.84-9.84,22.92-15.26,36.84-15.26,11.41,0,22.24,3.64,31.2,10.37l-100.09,100.09-31.57-31.57,63.62-63.62Z"/>
  </g>
  <g>
    <path class="st18" d="M334.5,176.48s.02.02.03.03l22.89,22.88-22.92-22.92Z"/>
    <path class="st18" d="M389.33,213.35c0-1.53-.49-3.01-1.35-4.25-.25-.35-.52-.7-.83-1.01l-68.89-68.89c-12.65-12.65-29.47-19.62-47.36-19.62s-34.71,6.97-47.37,19.62c-1.39,1.39-2.18,3.29-2.18,5.26s.79,3.86,2.18,5.26l5.64,5.64,58,58-45.07,45.07-18.56,18.56c-1.39,1.39-2.18,3.29-2.18,5.26h0c0,.33.05.65.1.97.21,1.61.92,3.13,2.08,4.29.07.07.14.12.21.19,1.67,1.65,3.4,3.19,5.19,4.63.06.04.1.1.16.14,1.44,1.15,2.92,2.23,4.42,3.25.07.05.14.08.2.13.49.33,1,.61,1.5.93,1.21.77,2.44,1.5,3.69,2.18.62.34,1.24.66,1.87.97,1.24.62,2.49,1.2,3.76,1.74.56.24,1.11.49,1.67.71,1.8.71,3.61,1.36,5.45,1.9.31.09.62.16.93.24,1.57.44,3.15.83,4.74,1.15.63.13,1.26.24,1.89.35,1.35.24,2.69.43,4.05.58.62.07,1.24.15,1.86.2,1.84.16,3.68.26,5.52.26.08,0,.16.01.23.01,8.91,0,17.8-1.8,26.13-5.32,7.71-3.26,14.95-7.98,21.23-14.26l14.72-14.72,12.07-12.08,36.84-36.84,5.26-5.26c1.05-1.05,1.75-2.37,2.03-3.8.1-.48.14-.97.14-1.46ZM307.73,276.98c-.13.13-.27.24-.41.37-.99.97-2,1.9-3.04,2.77-.45.37-.92.7-1.38,1.06-.76.59-1.51,1.19-2.3,1.73-.53.37-1.08.7-1.62,1.04-.74.47-1.48.95-2.23,1.38-.58.33-1.17.62-1.75.93-.75.39-1.5.78-2.26,1.13-.6.28-1.22.53-1.83.78-.77.32-1.54.63-2.32.91-.62.22-1.25.43-1.88.62-.79.25-1.58.49-2.38.7-.63.17-1.27.32-1.9.46-.81.18-1.62.35-2.44.49-.63.11-1.27.22-1.9.3-.84.12-1.68.2-2.52.28-.62.06-1.24.11-1.87.15-.87.05-1.73.06-2.6.06-.6,0-1.2.01-1.8,0-.9-.03-1.81-.1-2.71-.17-.56-.05-1.13-.08-1.69-.14-.97-.11-1.93-.27-2.89-.44-.49-.08-.98-.15-1.47-.24-1.14-.23-2.26-.52-3.38-.82-.3-.08-.61-.14-.92-.23-1.44-.42-2.86-.9-4.26-1.44-.15-.06-.29-.13-.43-.19-1.23-.49-2.46-1.02-3.66-1.61-.45-.22-.88-.48-1.33-.71-.87-.46-1.73-.92-2.58-1.43-1.36-.82-2.7-1.71-4-2.67-.1-.07-.2-.13-.3-.2l20.17-20.17,37.82-37.82,31.57,31.57-15.75,15.75-5.78,5.78ZM270.9,134.46c13.92,0,26.99,5.42,36.84,15.26l63.62,63.62-31.58,31.57-100.09-100.09c8.96-6.73,19.8-10.37,31.2-10.37Z"/>
    <path class="st18" d="M92.14,176.52s.02-.02.03-.03l-22.92,22.92,22.89-22.88Z"/>
    <path class="st18" d="M205.16,280.78c-.29-1.43-.99-2.76-2.03-3.81l-19.66-19.66-43.97-43.96,58-58,5.64-5.64c1.39-1.4,2.18-3.29,2.18-5.26s-.78-3.87-2.18-5.26c-12.65-12.65-29.47-19.62-47.37-19.62s-34.71,6.97-47.36,19.62l-68.89,68.89c-.29.29-.53.61-.76.93-.91,1.26-1.42,2.76-1.42,4.33h0c0,1.98.79,3.87,2.18,5.26l5.26,5.26,36.84,36.84,12.07,12.08,14.72,14.72c6.28,6.28,13.51,11,21.23,14.26,8.33,3.52,17.23,5.32,26.13,5.32.08,0,.16-.01.23-.01,1.84,0,3.68-.11,5.52-.26.62-.05,1.24-.13,1.85-.2,1.36-.15,2.7-.35,4.05-.58.63-.11,1.26-.22,1.89-.35,1.59-.33,3.17-.71,4.75-1.16.31-.09.62-.15.93-.24,1.84-.55,3.66-1.19,5.45-1.9.56-.22,1.11-.48,1.67-.71,1.27-.54,2.52-1.12,3.76-1.74.63-.32,1.25-.63,1.87-.97,1.25-.68,2.48-1.41,3.69-2.18.5-.31,1.01-.6,1.5-.93.07-.04.14-.08.2-.13,1.51-1.01,2.98-2.1,4.42-3.25.06-.04.11-.1.16-.14,1.78-1.43,3.51-2.97,5.17-4.61.07-.07.16-.13.23-.21.97-.97,1.63-2.2,1.95-3.52.14-.57.23-1.15.23-1.74,0-.49-.05-.98-.14-1.46ZM178.77,286.88c-1.2.59-2.42,1.12-3.66,1.61-.15.06-.29.13-.43.19-1.4.54-2.82,1.02-4.26,1.44-.31.09-.62.15-.93.23-1.12.3-2.24.59-3.38.82-.49.1-.98.16-1.48.24-.96.16-1.92.33-2.89.44-.56.06-1.12.09-1.69.14-.9.07-1.8.14-2.71.17-.6.02-1.2,0-1.8,0-.87,0-1.74-.01-2.6-.06-.62-.03-1.25-.09-1.87-.15-.84-.07-1.68-.16-2.52-.28-.63-.09-1.27-.19-1.9-.3-.82-.14-1.63-.31-2.44-.49-.64-.14-1.27-.3-1.9-.46-.8-.21-1.59-.45-2.38-.7-.63-.2-1.25-.4-1.87-.62-.78-.28-1.55-.59-2.32-.91-.61-.25-1.22-.5-1.83-.78-.76-.35-1.51-.74-2.26-1.13-.59-.31-1.18-.6-1.75-.93-.76-.43-1.49-.91-2.23-1.38-.54-.35-1.09-.67-1.62-1.04-.78-.54-1.54-1.14-2.3-1.73-.46-.36-.93-.69-1.38-1.06-1.04-.87-2.06-1.81-3.04-2.77-.13-.13-.28-.24-.41-.37l-5.78-5.78-15.75-15.75,31.57-31.57,40.34,40.34,17.65,17.65c-.1.08-.21.14-.31.21-1.29.96-2.62,1.84-3.98,2.66-.84.51-1.71.97-2.58,1.43-.44.23-.88.49-1.33.71ZM118.93,149.73c9.84-9.84,22.92-15.26,36.84-15.26,11.41,0,22.24,3.64,31.2,10.37l-100.09,100.09-31.58-31.57,63.62-63.62Z"/>
  </g>
</svg>