<?xml version="1.0" encoding="UTF-8"?>
<svg id="Layer_1" xmlns="http://www.w3.org/2000/svg" version="1.1" xmlns:xlink="http://www.w3.org/1999/xlink" viewBox="0 0 1805.34 1805.34">
  <!-- Generator: Adobe Illustrator 30.4.0, SVG Export Plug-In . SVG Version: 2.1.4 Build 226)  -->
  <defs>
    <style>
      .st0 {
        fill: url(#linear-gradient2);
      }

      .st1 {
        fill: url(#linear-gradient1);
      }

      .st2 {
        fill: url(#linear-gradient3);
      }

      .st3 {
        fill: url(#linear-gradient);
      }
    </style>
    <linearGradient id="linear-gradient" x1="495.09" y1="261.97" x2="480.64" y2="1277.87" gradientUnits="userSpaceOnUse">
      <stop offset="0" stop-color="#00c1f4"/>
      <stop offset=".04" stop-color="#00b9f4"/>
      <stop offset=".36" stop-color="#0085f4"/>
      <stop offset=".64" stop-color="#0060f4"/>
      <stop offset=".86" stop-color="#0049f4"/>
      <stop offset="1" stop-color="#0041f5"/>
    </linearGradient>
    <linearGradient id="linear-gradient1" x1="116.15" y1="1071.55" x2="859.89" y2="1071.55" gradientUnits="userSpaceOnUse">
      <stop offset="0" stop-color="#013bf4"/>
      <stop offset=".15" stop-color="#0141f3"/>
      <stop offset=".35" stop-color="#0154f1"/>
      <stop offset=".6" stop-color="#0173ee"/>
      <stop offset=".87" stop-color="#019eeb"/>
      <stop offset="1" stop-color="#02b5e9"/>
    </linearGradient>
    <linearGradient id="linear-gradient2" x1="1308.84" y1="356.83" x2="1323.28" y2="1006.82" xlink:href="#linear-gradient"/>
    <linearGradient id="linear-gradient3" x1="-695.52" x2="48.22" gradientTransform="translate(993.66) scale(-1 1)" xlink:href="#linear-gradient1"/>
  </defs>
  <path class="st3" d="M805.66,694.23l-298.67,206.29-142.55,98.45-6.57,4.54c-58.8,40.62-139.4,25.87-180.01-32.94l-41.05-59.42c-2.26-3.27-4.34-6.6-6.25-9.99-7.07-12.49-11.85-25.77-14.41-39.29v-48.31c.33-1.73.69-3.46,1.1-5.17.09-.5.22-.99.35-1.49.38-1.56.79-3.11,1.23-4.65.2-.72.41-1.45.63-2.15.22-.74.46-1.48.69-2.2.24-.74.47-1.48.72-2.2.13-.41.27-.8.42-1.21.3-.9.63-1.79.97-2.69.05-.14.11-.3.16-.44.06-.17.13-.35.2-.52.2-.53.41-1.05.63-1.59.28-.74.6-1.49.91-2.23.38-.91.79-1.82,1.21-2.73.8-1.79,1.65-3.58,2.55-5.33.2-.41.41-.82.63-1.21.53-1.07,1.1-2.11,1.68-3.16.31-.55.61-1.1.93-1.63,2.64-4.6,5.58-9.05,8.82-13.34t.03-.03c8.11-10.75,18.06-20.4,29.75-28.46l71.8-49.6,375.97-259.68c58.8-40.61,139.4-25.87,180.03,32.94l41.05,59.43c40.61,58.8,25.87,139.4-32.94,180.01Z"/>
  <path class="st1" d="M835.99,1292.85l-41.82,58.88c-41.38,58.27-122.17,71.97-180.44,30.6l-303.07-215.21-140.65-99.87c-31.84-22.61-50.37-56.97-53.87-93v-160.68c.33-1.73.69-3.46,1.1-5.17.09-.5.22-.99.35-1.49.38-1.56.79-3.11,1.23-4.65.2-.72.41-1.45.63-2.15.22-.74.46-1.48.69-2.2.24-.74.47-1.48.72-2.2.13-.41.27-.8.42-1.21.31-.91.64-1.81.97-2.69.05-.14.11-.3.16-.44.06-.17.13-.35.2-.52.2-.53.41-1.05.63-1.59.28-.74.6-1.49.91-2.23.38-.91.79-1.82,1.21-2.73.8-1.79,1.65-3.58,2.55-5.33.2-.41.41-.82.63-1.21.53-1.07,1.1-2.11,1.68-3.16.31-.55.61-1.1.93-1.63,2.64-4.6,5.58-9.05,8.82-13.34t.03-.03c8.74-9.51,20.24-16.22,33.13-19.06,83.49-18.45,164.33,38.22,183.52,52.93.39.3.63.66.8,1.04,1.41.93,2.83,1.85,4.23,2.84l2.77,1.96,142.55,101.22,298.41,211.9c58.27,41.38,71.97,122.17,30.6,180.44Z"/>
  <path class="st0" d="M999.68,694.23l298.67,206.29,142.55,98.45,6.57,4.54c58.8,40.62,139.4,25.87,180.01-32.94l41.05-59.42c2.26-3.27,4.34-6.6,6.25-9.99,7.07-12.49,11.85-25.77,14.41-39.29v-48.31c-.33-1.73-.69-3.46-1.1-5.17-.09-.5-.22-.99-.35-1.49-.38-1.56-.79-3.11-1.23-4.65-.2-.72-.41-1.45-.63-2.15-.22-.74-.46-1.48-.69-2.2-.24-.74-.47-1.48-.72-2.2-.13-.41-.27-.8-.42-1.21-.3-.9-.63-1.79-.97-2.69-.05-.14-.11-.3-.16-.44-.06-.17-.13-.35-.2-.52-.2-.53-.41-1.05-.63-1.59-.28-.74-.6-1.49-.91-2.23-.38-.91-.79-1.82-1.21-2.73-.8-1.79-1.65-3.58-2.55-5.33-.2-.41-.41-.82-.63-1.21-.53-1.07-1.1-2.11-1.68-3.16-.31-.55-.61-1.1-.93-1.63-2.64-4.6-5.58-9.05-8.82-13.34t-.03-.03c-8.11-10.75-18.06-20.4-29.75-28.46l-71.8-49.6-375.97-259.68c-58.8-40.61-139.4-25.87-180.03,32.94l-41.05,59.43c-40.61,58.8-25.87,139.4,32.94,180.01Z"/>
  <path class="st2" d="M969.35,1292.85l41.82,58.88c41.38,58.27,122.17,71.97,180.44,30.6l303.07-215.21,140.65-99.87c31.84-22.61,50.37-56.97,53.87-93v-160.68c-.33-1.73-.69-3.46-1.1-5.17-.09-.5-.22-.99-.35-1.49-.38-1.56-.79-3.11-1.23-4.65-.2-.72-.41-1.45-.63-2.15-.22-.74-.46-1.48-.69-2.2-.24-.74-.47-1.48-.72-2.2-.13-.41-.27-.8-.42-1.21-.31-.91-.64-1.81-.97-2.69-.05-.14-.11-.3-.16-.44-.06-.17-.13-.35-.2-.52-.2-.53-.41-1.05-.63-1.59-.28-.74-.6-1.49-.91-2.23-.38-.91-.79-1.82-1.21-2.73-.8-1.79-1.65-3.58-2.55-5.33-.2-.41-.41-.82-.63-1.21-.53-1.07-1.1-2.11-1.68-3.16-.31-.55-.61-1.1-.93-1.63-2.64-4.6-5.58-9.05-8.82-13.34t-.03-.03c-8.74-9.51-20.24-16.22-33.13-19.06-83.49-18.45-164.33,38.22-183.52,52.93-.39.3-.63.66-.8,1.04-1.41.93-2.83,1.85-4.23,2.84l-2.77,1.96-142.55,101.22-298.41,211.9c-58.27,41.38-71.97,122.17-30.6,180.44Z"/>
</svg>